PathFileType	4	(X/Y/Z)	/Users/itak/Documents/Research/Walk-IL/dataset/trc/00441_00167.trc
DataRate	CameraRate	NumFrames	NumMarkers	Units	OrigDataRate	OrigDataStartFrame	OrigNumFrames
100.000000	100.000000	4	53	mm	100.000000	0	520
Frame#	Time	RPSI			LPSI			L3			STRN			T10			C7			CLAV			RBAK			LBAK			LSHO			LUPA			LAEL			LAOL			LWTS			LWPS			LFRA			LIFD			LHPS			LHTS			RSHO			RUPA			RAEL			RAOL			RWTS			RWPS			RFRA			RIFD			RHTS			RHPS			RBHD			LFHD			RFHD			LBHD			LHIP			RHIP			RASI			LASI			LKNE			LTHI			LANK			LTIP			LTOE			LMT1			LMT5			LHEE			RKNE			RTHI			RANK			RTIP			RTOE			RMT1			RMT5			RHEE			
		X1	Y1	Z1	X2	Y2	Z2	X3	Y3	Z3	X4	Y4	Z4	X5	Y5	Z5	X6	Y6	Z6	X7	Y7	Z7	X8	Y8	Z8	X9	Y9	Z9	X10	Y10	Z10	X11	Y11	Z11	X12	Y12	Z12	X13	Y13	Z13	X14	Y14	Z14	X15	Y15	Z15	X16	Y16	Z16	X17	Y17	Z17	X18	Y18	Z18	X19	Y19	Z19	X20	Y20	Z20	X21	Y21	Z21	X22	Y22	Z22	X23	Y23	Z23	X24	Y24	Z24	X25	Y25	Z25	X26	Y26	Z26	X27	Y27	Z27	X28	Y28	Z28	X29	Y29	Z29	X30	Y30	Z30	X31	Y31	Z31	X32	Y32	Z32	X33	Y33	Z33	X34	Y34	Z34	X35	Y35	Z35	X36	Y36	Z36	X37	Y37	Z37	X38	Y38	Z38	X39	Y39	Z39	X40	Y40	Z40	X41	Y41	Z41	X42	Y42	Z42	X43	Y43	Z43	X44	Y44	Z44	X45	Y45	Z45	X46	Y46	Z46	X47	Y47	Z47	X48	Y48	Z48	X49	Y49	Z49	X50	Y50	Z50	X51	Y51	Z51	X52	Y52	Z52	X53	Y53	Z53	

1	0	-1191.872802734375	971.62060546875	-455.2659912109375	-1115.398315429688	968.4968872070312	-573.9931030273438	-1151.80908203125	1060.457153320312	-496.8400268554688	-914.7278442382812	1257.49072265625	-379.2016906738281	-1170.284790039062	1183.009155273438	-511.9336547851562	-1124.648803710938	1450.53564453125	-468.7980041503906	-948.2487182617188	1370.859619140625	-399.3197021484375	-1219.330322265625	1329.189697265625	-412.0386657714844	-1107.683227539062	1405.41015625	-572.7415771484375	-979.1981201171875	1430.72021484375	-596.5914916992188	-938.56640625	1313.12890625	-690.25732421875	-897.4133911132812	1096.475463867188	-704.731689453125	-997.8595581054688	1078.369750976562	-690.315185546875	-846.4827270507812	899.6458740234375	-617.4576416015625	-854.7459716796875	880.4508056640625	-689.414306640625	-871.9091186523438	1010.185363769531	-699.2496948242188	-842.5421142578125	730.77490234375	-613.2608032226562	-848.5072021484375	799.806884765625	-681.3340454101562	-825.3904418945312	811.2365112304688	-612.8141479492188	-1130.788940429688	1419.080200195312	-294.2206115722656	-1175.698974609375	1355.132446289062	-232.9477844238281	-1168.162841796875	1066.43017578125	-177.5592041015625	-1209.564208984375	1048.659912109375	-228.1758728027344	-1046.702880859375	872.9631958007812	-204.1328887939453	-1122.305053710938	851.957275390625	-163.5170440673828	-1162.516479492188	1007.882507324219	-168.488037109375	-1037.208984375	714.0321044921875	-197.6793518066406	-1028.120727539062	773.744384765625	-190.4468688964844	-1099.03857421875	766.5086669921875	-163.2381439208984	-1111.324951171875	1644.765502929688	-365.2235412597656	-914.6240234375	1676.18505859375	-423.3275756835938	-985.9520263671875	1672.58447265625	-313.6325988769531	-1028.744384765625	1654.050048828125	-522.8671875	-942.5414428710938	860.4420776367188	-599.7423706054688	-1172.50927734375	862.5392456054688	-279.9203796386719	-1048.567260742188	901.991455078125	-271.2892456054688	-897.6138305664062	896.89697265625	-480.6007690429688	-977.5913696289062	438.0129699707031	-568.7967529296875	-936.5070190429688	589.7918701171875	-573.7534790039062	-1063.485229492188	34.43383026123047	-607.0447998046875	-990.1666870117188	286.77978515625	-583.6961059570312	-907.0125732421875	44.48291015625	-431.6802368164062	-985.8652954101562	49.98363494873047	-444.6884460449219	-928.9456176757812	45.24262619018555	-543.612060546875	-1136.210327148438	38.02888107299805	-592.476806640625	-1143.52685546875	464.2503051757812	-302.5856018066406	-1141.405151367188	726.042236328125	-252.4129028320312	-1182.858276367188	43.00782775878906	-335.6285705566406	-1155.362060546875	320.5686340332031	-297.2662353515625	-974.3538208007812	49.67676544189453	-276.6297607421875	-1011.666809082031	53.70232772827148	-338.8825988769531	-1077.084716796875	48.05944442749023	-251.2945404052734	-1221.552368164062	36.3698616027832	-406.7964782714844	
2	0.01	-1191.8232421875	971.6185913085938	-455.3345031738281	-1115.356079101562	968.5233154296875	-574.0458984375	-1151.740478515625	1060.437866210938	-496.8720092773438	-914.725341796875	1257.491821289062	-379.2435607910156	-1170.229614257812	1182.956298828125	-512.0235595703125	-1124.627563476562	1450.518920898438	-468.9204711914062	-948.2880249023438	1370.845092773438	-399.3704833984375	-1219.308959960938	1329.152099609375	-412.1952819824219	-1107.667358398438	1405.357666015625	-572.8543701171875	-979.1463623046875	1430.658813476562	-596.6900024414062	-938.5706787109375	1313.060302734375	-690.332763671875	-897.4197387695312	1096.406982421875	-704.7479248046875	-998.0479736328125	1078.45849609375	-690.4095458984375	-846.519287109375	899.5805053710938	-617.4652709960938	-854.7733764648438	880.3662719726562	-689.4063110351562	-871.93310546875	1010.0849609375	-699.2835083007812	-842.6762084960938	730.7096557617188	-613.2399291992188	-848.6904907226562	799.6390380859375	-681.3234252929688	-825.4957885742188	811.1072998046875	-612.8002319335938	-1130.80126953125	1419.062622070312	-294.3524475097656	-1175.755493164062	1355.126708984375	-233.0352478027344	-1168.286987304688	1066.445678710938	-177.6323699951172	-1209.669067382812	1048.690063476562	-228.2593841552734	-1046.911743164062	872.9237060546875	-204.1287536621094	-1122.549926757812	851.9677734375	-163.4864196777344	-1162.671020507812	1007.897583007812	-168.5525970458984	-1037.478637695312	714.0010986328125	-197.6636047363281	-1028.4140625	773.7376708984375	-190.3718566894531	-1099.294799804688	766.5006103515625	-163.2550354003906	-1111.256103515625	1644.7919921875	-365.338623046875	-914.5905151367188	1676.170776367188	-423.4473571777344	-985.8114624023438	1672.543334960938	-313.7539978027344	-1028.721435546875	1653.975708007812	-522.9669189453125	-942.4822387695312	860.41015625	-599.8010864257812	-1172.476318359375	862.554931640625	-279.9800720214844	-1048.688110351562	901.9707641601562	-271.3351135253906	-897.5397338867188	896.8867797851562	-480.6007385253906	-977.7890014648438	438.0189208984375	-568.9465942382812	-936.5927124023438	589.7606811523438	-573.8243408203125	-1063.479858398438	34.4233283996582	-607.044189453125	-990.263671875	286.8017578125	-583.8124389648438	-907.0186767578125	44.4892578125	-431.6976013183594	-985.8471069335938	49.97603988647461	-444.7068786621094	-928.94873046875	45.24578475952148	-543.6189575195312	-1136.20947265625	38.01910018920898	-592.4773559570312	-1143.558837890625	464.252685546875	-302.6101379394531	-1141.3779296875	726.0252685546875	-252.4841918945312	-1182.856201171875	43.00292587280273	-335.6329650878906	-1155.402465820312	320.5965881347656	-297.2804870605469	-974.3553466796875	49.67671966552734	-276.6300048828125	-1011.666625976562	53.70272064208984	-338.8873901367188	-1077.086059570312	48.05971527099609	-251.29296875	-1221.5517578125	36.36046600341797	-406.79541015625	
3	0.02	-1191.758544921875	971.61865234375	-455.4175109863281	-1115.289916992188	968.5525512695312	-574.1121215820312	-1151.649047851562	1060.41357421875	-496.9168395996094	-914.7186279296875	1257.48974609375	-379.2934265136719	-1170.157104492188	1182.895629882812	-512.129638671875	-1124.5947265625	1450.49658203125	-469.0802001953125	-948.3255615234375	1370.827514648438	-399.4407653808594	-1219.278686523438	1329.10595703125	-412.3924255371094	-1107.638793945312	1405.29248046875	-572.9974365234375	-979.0703125	1430.583984375	-596.8145141601562	-938.5746459960938	1312.974487304688	-690.420654296875	-897.421630859375	1096.317016601562	-704.7672119140625	-998.249755859375	1078.541137695312	-690.5178833007812	-846.5725708007812	899.4840698242188	-617.47900390625	-854.8131103515625	880.2615356445312	-689.4010620117188	-871.962158203125	1009.961303710938	-699.3261108398438	-842.8177490234375	730.6295776367188	-613.2062377929688	-848.9011840820312	799.4432373046875	-681.3159790039062	-825.6458129882812	810.92578125	-612.7922973632812	-1130.814819335938	1419.04296875	-294.5169982910156	-1175.82666015625	1355.12060546875	-233.1486358642578	-1168.443725585938	1066.469604492188	-177.7257537841797	-1209.802368164062	1048.727172851562	-228.3695526123047	-1047.169189453125	872.8732299804688	-204.1185302734375	-1122.853881835938	851.984619140625	-163.4554138183594	-1162.866577148438	1007.921264648438	-168.6312408447266	-1037.829467773438	713.9556884765625	-197.6255035400391	-1028.790283203125	773.7256469726562	-190.2636108398438	-1099.616455078125	766.4915161132812	-163.2714080810547	-1111.16943359375	1644.82568359375	-365.4918212890625	-914.5363159179688	1676.148071289062	-423.6093444824219	-985.6478271484375	1672.496337890625	-313.9105529785156	-1028.68115234375	1653.89990234375	-523.0986328125	-942.4049682617188	860.3765869140625	-599.870849609375	-1172.435546875	862.573486328125	-280.0564575195312	-1048.807983398438	901.95068359375	-271.3898010253906	-897.4508056640625	896.8738403320312	-480.6004028320312	-978.0364990234375	438.0232849121094	-569.1278686523438	-936.7064819335938	589.7203369140625	-573.9192504882812	-1063.474487304688	34.41192626953125	-607.0447998046875	-990.3695068359375	286.8497924804688	-583.9653930664062	-907.0242919921875	44.49652099609375	-431.7188720703125	-985.8308715820312	49.97238159179688	-444.7266845703125	-928.9529418945312	45.24990844726562	-543.6273193359375	-1136.208251953125	38.00860214233398	-592.4797973632812	-1143.597412109375	464.2569580078125	-302.64208984375	-1141.35009765625	726.0108032226562	-252.5671844482422	-1182.855346679688	42.99836349487305	-335.6375732421875	-1155.450439453125	320.6264953613281	-297.3008422851562	-974.35693359375	49.67620849609375	-276.63037109375	-1011.666320800781	53.703125	-338.8936462402344	-1077.08837890625	48.05986022949219	-251.2924194335938	-1221.550659179688	36.35017013549805	-406.7951354980469	
4	0.03	-1191.682373046875	971.6221313476562	-455.5087890625	-1115.200073242188	968.5828857421875	-574.1876220703125	-1151.536865234375	1060.385131835938	-496.9753723144531	-914.7056884765625	1257.483520507812	-379.3480529785156	-1170.068237304688	1182.83203125	-512.246337890625	-1124.548461914062	1450.468994140625	-469.2724609375	-948.3538818359375	1370.807739257812	-399.5303955078125	-1219.238647460938	1329.054077148438	-412.6220092773438	-1107.593505859375	1405.2177734375	-573.1654052734375	-978.967041015625	1430.499267578125	-596.9601440429688	-938.576171875	1312.875122070312	-690.5140380859375	-897.4169311523438	1096.207275390625	-704.78857421875	-998.4473876953125	1078.602905273438	-690.6340942382812	-846.6448364257812	899.3522338867188	-617.5006713867188	-854.867919921875	880.14111328125	-689.4014282226562	-871.99609375	1009.819458007812	-699.3762817382812	-842.953369140625	730.537109375	-613.16064453125	-849.1221923828125	799.235595703125	-681.3140869140625	-825.8400268554688	810.6931762695312	-612.7969970703125	-1130.828369140625	1419.023193359375	-294.7065124511719	-1175.909301757812	1355.114990234375	-233.2857818603516	-1168.627075195312	1066.503295898438	-177.8361511230469	-1209.958374023438	1048.769653320312	-228.5054168701172	-1047.463256835938	872.81298828125	-204.1012725830078	-1123.203857421875	852.0079345703125	-163.4288330078125	-1163.095825195312	1007.954467773438	-168.7200164794922	-1038.251953125	713.8949584960938	-197.5580291748047	-1029.234497070312	773.70458984375	-190.12548828125	-1099.994506835938	766.4833374023438	-163.2796478271484	-1111.06884765625	1644.865966796875	-365.6791687011719	-914.4571533203125	1676.116821289062	-423.8110656738281	-985.4751586914062	1672.448486328125	-314.0973205566406	-1028.619750976562	1653.833862304688	-523.2598266601562	-942.3123168945312	860.3460693359375	-599.945068359375	-1172.388549804688	862.5945434570312	-280.147216796875	-1048.90771484375	901.9346313476562	-271.450439453125	-897.3535766601562	896.8587646484375	-480.6001281738281	-978.3130493164062	438.0289611816406	-569.3258056640625	-936.8455200195312	589.67236328125	-574.037109375	-1063.469360351562	34.40082168579102	-607.0466918945312	-990.47412109375	286.9236755371094	-584.1471557617188	-907.0288696289062	44.50417327880859	-431.7430725097656	-985.8182983398438	49.97394180297852	-444.746337890625	-928.9578857421875	45.25453948974609	-543.6363525390625	-1136.20703125	37.99802780151367	-592.4845581054688	-1143.6396484375	464.2632446289062	-302.6810913085938	-1141.324584960938	726.00244140625	-252.6554260253906	-1182.85595703125	42.99481964111328	-335.6417541503906	-1155.501953125	320.6551818847656	-297.3271179199219	-974.358642578125	49.67533874511719	-276.6304931640625	-1011.665771484375	53.70337295532227	-338.901123046875	-1077.091674804688	48.06010055541992	-251.2931518554688	-1221.548828125	36.34014511108398	-406.7962951660156	
